<svg id="Layer_1" data-name="Layer 1" xmlns="http://www.w3.org/2000/svg" viewBox="0 0 453 108"><defs><style>.cls-1{fill:#373e4c;}</style></defs><title>workplace</title><g id="_Group_" data-name="&lt;Group&gt;"><path id="_Path_" data-name="&lt;Path&gt;" class="cls-1" d="M64.56,4.8H71.9c13.46,1.26,26.23,8.75,33.39,20.28,10.36,15.75,8.92,38.25-3.65,52.36-3.49,4.06-10.63,3-12.76-1.9-3.53-7.69-6.31-15.71-9.63-23.49-3.13,7.52-5.92,15.2-9.17,22.68-1.42,4-6.22,6.56-10.21,4.72-3-1.13-4.45-4.23-5.59-7C49.81,61.19,45.23,50,40.7,38.72h11c3.66,9,7.3,18.12,11,27.16,2.76-6.79,5.46-13.61,8.16-20.42,1.22-3.06,2.81-6.5,6.23-7.54,3.78-1.42,7.87,1.27,9.3,4.75C90,50.87,93,59.34,96.57,67.59c3.56-6.08,5.81-13,5.42-20.13-.37-15.64-13-29.89-28.55-32C55,12.62,36.24,25.26,30.93,43c-5.21,15.66.71,34,13.89,43.87a38.27,38.27,0,0,0,34.33,6.74c0,3.5,0,7,0,10.49-2.2.39-4.38.81-6.58,1.15h-7.5c-12.64-1.21-24.86-7-33.27-16.57-7.48-8.17-11.68-18.9-12.85-29.84V51.6c1-11.09,5.31-22,12.87-30.26C40.1,11.87,52.14,6.2,64.56,4.8Z"/><path id="_Path_2" data-name="&lt;Path&gt;" class="cls-1" d="M199.71,21.14q5,0,10,0c0,10.62,0,21.25,0,31.88,5-4.76,9.87-9.55,14.81-14.31H236L221.22,53.39q8.17,12.74,16.38,25.44H225.76q-5.7-9.41-11.42-18.82c-1.5,1.44-3,2.87-4.55,4.32q-.06,7.25,0,14.49h-10Q199.7,50,199.71,21.14Z"/><path id="_Path_3" data-name="&lt;Path&gt;" class="cls-1" d="M291.29,21.23h10V78.84h-10Q291.29,50,291.29,21.23Z"/><path class="cls-1" d="M132.41,38.18c10.53-3.53,23.3,2.31,26.57,13.14,4.12,11.2-2.76,25.23-14.69,27.71-10.73,3-23-3.78-25.61-14.71C115.49,53.78,121.63,41.23,132.41,38.18Zm2.3,8.53c-10,4.37-8.79,22.08,2.28,24.13,8.75,2,15.17-8.07,12.75-15.85C148.67,48.29,141,43.76,134.71,46.71Z"/><path id="_Path_4" data-name="&lt;Path&gt;" class="cls-1" d="M178.26,42.56a17.64,17.64,0,0,1,16.29-4.21c-.65,3.12-1.33,6.25-2,9.37-5.34-1.73-12.23.27-14,6-.65,8.33-.09,16.72-.27,25.08h-10q0-20,0-40.07h9.95Z"/><path class="cls-1" d="M252.29,42.4c6.21-5.93,17-6.81,23.49-.89,9.3,8.8,9,26.09-1.47,33.92-6.28,4.88-15,5.16-22.11,2,.09,5.91.1,11.81.15,17.72h-10q0-28.25,0-56.46c3.15,0,6.3,0,9.45,0C251.93,39.63,252.16,41.48,252.29,42.4ZM259,46.72c-8.55,3.69-7.07,14.34-6.43,21.85,4.87,2.86,12,3.22,16.23-1s4.45-11,2.3-16.26C269.12,46.81,263.38,45,259,46.72Z"/><path class="cls-1" d="M311.51,42.65c6.32-4.84,14.84-6.21,22.52-4.53,6,1.27,11.05,6.65,11.1,12.94.24,9.26,0,18.52.08,27.78-2.92,0-5.86,0-8.77,0-.15-.94-.44-2.82-.59-3.77-5.69,5.19-15,7-21.28,1.75-6.55-5.18-5.72-16.66,1.28-21.08,6-4,13.48-2.91,20.24-2.77-.66-2.09-1-4.66-3.2-5.78-5.37-2.88-11.83-1-16.74,2C314.58,47,313.06,44.82,311.51,42.65Zm12,18.24c-3.87,1.39-5.47,7.42-1.73,9.86,6.73,3.91,16.68-2.13,14.74-10.23C332.2,60.27,327.66,59.32,323.5,60.89Z"/><path id="_Path_5" data-name="&lt;Path&gt;" class="cls-1" d="M358.15,44c7.73-8.87,23-8.78,31.11-.48-1.94,2.09-3.84,4.21-5.76,6.29-3.9-3.09-9.2-5.16-14.07-3.06-9.32,4-8.91,20,.69,23.45,4.82,2.06,9.78-.65,13.64-3.42,1.81,2.09,3.58,4.24,5.41,6.33-4.74,4.38-11.1,7.63-17.7,6.73-5.79-.87-11.75-3.46-15.06-8.51C351.1,63.18,351.54,51.36,358.15,44Z"/><path class="cls-1" d="M399.25,42.58c5.84-5.68,15.07-6.34,22.45-3.74,7.89,3.4,11.07,12.41,11.36,20.43v2c-10.16.05-20.31-.15-30.46.12,1.1,3.22,2.55,6.68,5.85,8.17,6.25,3.34,13.66.73,19.09-3,1.71,2.06,3.45,4.09,5.17,6.13-7.55,6.69-19.18,9.83-28.44,4.85C391.29,71.69,389.11,52,399.25,42.58Zm3.34,11.09c6.91.09,13.84.13,20.77,0-.93-2.32-1.8-4.93-4-6.36C413.43,43.39,403.91,46.3,402.59,53.67Z"/></g></svg>